<svg width="168" height="30" viewBox="0 0 168 30" fill="none" xmlns="http://www.w3.org/2000/svg">
<circle cx="15" cy="15" r="14.5" stroke="#474747"/>
<path d="M15.4799 12.6V11.16C15.4799 10.536 15.6239 10.2 16.6319 10.2H17.8799V7.80005H15.9599C13.5599 7.80005 12.5999 9.38405 12.5999 11.16V12.6H10.6799V15H12.5999V22.2H15.4799V15H17.5919L17.8799 12.6H15.4799Z" fill="#474747"/>
<circle cx="61" cy="15" r="14.5" stroke="#474747"/>
<path d="M61.0001 11.2447C58.9218 11.2447 57.2446 12.9219 57.2446 15.0002C57.2446 17.0784 58.9218 18.7557 61.0001 18.7557C63.0783 18.7557 64.7556 17.0784 64.7556 15.0002C64.7556 12.9219 63.0783 11.2447 61.0001 11.2447ZM61.0001 17.441C59.6561 17.441 58.5593 16.3442 58.5593 15.0002C58.5593 13.6562 59.6561 12.5594 61.0001 12.5594C62.3441 12.5594 63.4409 13.6562 63.4409 15.0002C63.4409 16.3442 62.3441 17.441 61.0001 17.441ZM64.9094 10.2156C64.4241 10.2156 64.0323 10.6075 64.0323 11.0927C64.0323 11.5779 64.4241 11.9698 64.9094 11.9698C65.3946 11.9698 65.7864 11.5798 65.7864 11.0927C65.7866 10.9775 65.764 10.8634 65.72 10.7569C65.6759 10.6504 65.6113 10.5537 65.5299 10.4722C65.4484 10.3907 65.3517 10.3261 65.2452 10.2821C65.1387 10.2381 65.0246 10.2155 64.9094 10.2156V10.2156ZM68.3206 15.0002C68.3206 13.9894 68.3298 12.9878 68.273 11.9789C68.2162 10.8071 67.9489 9.76702 67.092 8.91009C66.2332 8.05133 65.195 7.78582 64.0231 7.72906C63.0124 7.6723 62.0108 7.68145 61.0019 7.68145C59.9911 7.68145 58.9896 7.6723 57.9806 7.72906C56.8088 7.78582 55.7687 8.05316 54.9118 8.91009C54.053 9.76886 53.7875 10.8071 53.7308 11.9789C53.674 12.9897 53.6832 13.9913 53.6832 15.0002C53.6832 16.0091 53.674 17.0125 53.7308 18.0214C53.7875 19.1933 54.0549 20.2333 54.9118 21.0903C55.7706 21.949 56.8088 22.2145 57.9806 22.2713C58.9914 22.3281 59.993 22.3189 61.0019 22.3189C62.0126 22.3189 63.0142 22.3281 64.0231 22.2713C65.195 22.2145 66.235 21.9472 67.092 21.0903C67.9507 20.2315 68.2162 19.1933 68.273 18.0214C68.3316 17.0125 68.3206 16.0109 68.3206 15.0002V15.0002ZM66.7093 19.3178C66.5756 19.6511 66.4145 19.9001 66.1563 20.1564C65.8981 20.4146 65.6509 20.5757 65.3177 20.7094C64.3545 21.0921 62.0676 21.006 61.0001 21.006C59.9326 21.006 57.6437 21.0921 56.6806 20.7112C56.3473 20.5776 56.0983 20.4164 55.842 20.1583C55.5838 19.9001 55.4227 19.6529 55.289 19.3196C54.9081 18.3547 54.9942 16.0677 54.9942 15.0002C54.9942 13.9327 54.9081 11.6439 55.289 10.6807C55.4227 10.3475 55.5838 10.0984 55.842 9.8421C56.1002 9.58575 56.3473 9.42279 56.6806 9.28912C57.6437 8.90826 59.9326 8.99432 61.0001 8.99432C62.0676 8.99432 64.3564 8.90826 65.3195 9.28912C65.6528 9.42279 65.9018 9.58392 66.1581 9.8421C66.4163 10.1003 66.5775 10.3475 66.7111 10.6807C67.092 11.6439 67.0059 13.9327 67.0059 15.0002C67.0059 16.0677 67.092 18.3547 66.7093 19.3178Z" fill="#474747"/>
<circle cx="107" cy="15" r="14.5" stroke="#474747"/>
<g clip-path="url(#clip0_632_170)">
<path d="M116.096 9.48205C115.444 9.77111 114.743 9.96642 114.006 10.0547C114.766 9.59985 115.335 8.88397 115.606 8.04064C114.892 8.46485 114.11 8.76345 113.295 8.92345C112.747 8.33819 112.021 7.95027 111.23 7.81992C110.439 7.68956 109.627 7.82407 108.92 8.20256C108.213 8.58104 107.651 9.18233 107.32 9.91306C106.99 10.6438 106.91 11.4631 107.094 12.2438C105.647 12.1711 104.231 11.795 102.939 11.1398C101.646 10.4846 100.506 9.56498 99.5921 8.44064C99.2796 8.9797 99.0999 9.6047 99.0999 10.2703C99.0996 10.8695 99.2471 11.4596 99.5295 11.9881C99.8119 12.5166 100.22 12.9672 100.719 13.3C100.141 13.2816 99.5756 13.1255 99.0702 12.8445V12.8914C99.0702 13.7318 99.3609 14.5464 99.893 15.1969C100.425 15.8474 101.166 16.2937 101.99 16.4602C101.454 16.6053 100.892 16.6266 100.346 16.5227C100.578 17.2458 101.031 17.8782 101.641 18.3312C102.25 18.7843 102.987 19.0353 103.746 19.0492C102.457 20.0613 100.865 20.6102 99.2257 20.6078C98.9354 20.6079 98.6453 20.5909 98.3569 20.557C100.021 21.6267 101.957 22.1944 103.935 22.1922C110.63 22.1922 114.291 16.6469 114.291 11.8375C114.291 11.6813 114.287 11.5235 114.28 11.3672C114.992 10.8523 115.606 10.2148 116.094 9.48439L116.096 9.48205V9.48205Z" fill="#474747"/>
</g>
<circle cx="153" cy="15" r="14.5" stroke="#474747"/>
<g clip-path="url(#clip1_632_170)">
<path d="M158.752 13.3307C158.818 13.3284 158.884 13.3394 158.946 13.3632C159.008 13.3869 159.064 13.4229 159.112 13.4689C159.16 13.5149 159.197 13.5701 159.223 13.631C159.249 13.692 159.263 13.7575 159.263 13.8237C159.263 13.8899 159.249 13.9555 159.223 14.0165C159.197 14.0774 159.16 14.1325 159.112 14.1785C159.064 14.2246 159.008 14.2605 158.946 14.2843C158.884 14.308 158.818 14.3191 158.752 14.3168H157.382V15.1957H158.752C158.819 15.1925 158.885 15.2028 158.948 15.226C159.01 15.2492 159.067 15.2849 159.116 15.3309C159.164 15.3769 159.202 15.4322 159.229 15.4934C159.255 15.5547 159.268 15.6206 159.268 15.6873C159.268 15.754 159.255 15.8199 159.229 15.8812C159.202 15.9425 159.164 15.9978 159.116 16.0437C159.067 16.0897 159.01 16.1254 158.948 16.1486C158.885 16.1719 158.819 16.1822 158.752 16.1789H156.891C156.76 16.1784 156.636 16.1265 156.544 16.0343C156.452 15.9422 156.4 15.8174 156.4 15.6873V11.9607C156.4 11.6895 156.62 11.4668 156.891 11.4668H158.756C158.882 11.4733 159.001 11.5283 159.088 11.6203C159.176 11.7123 159.224 11.8343 159.224 11.961C159.223 12.0877 159.174 12.2093 159.086 12.3008C158.999 12.3923 158.879 12.4466 158.753 12.4523H157.382V13.3312L158.752 13.3307ZM155.744 15.6867C155.743 15.8172 155.69 15.942 155.598 16.034C155.505 16.1259 155.38 16.1776 155.249 16.1777C155.172 16.1785 155.096 16.1612 155.026 16.1274C154.957 16.0935 154.896 16.044 154.849 15.9826L152.942 13.3887V15.6861C152.942 15.8165 152.89 15.9416 152.798 16.0337C152.706 16.1259 152.581 16.1777 152.45 16.1777C152.32 16.1777 152.195 16.1259 152.103 16.0337C152.011 15.9416 151.959 15.8165 151.959 15.6861V11.9596C151.959 11.7492 152.096 11.5605 152.295 11.4932C152.343 11.4759 152.395 11.4674 152.447 11.468C152.599 11.468 152.74 11.5506 152.834 11.6666L154.757 14.2664V11.9596C154.757 11.6883 154.976 11.4656 155.248 11.4656C155.52 11.4656 155.743 11.6883 155.743 11.9596L155.744 15.6867ZM151.258 15.6867C151.257 15.8174 151.205 15.9425 151.112 16.0347C151.02 16.1268 150.894 16.1785 150.763 16.1783C150.634 16.1772 150.51 16.125 150.418 16.0329C150.327 15.9409 150.276 15.8164 150.275 15.6867V11.9602C150.275 11.6889 150.495 11.4662 150.767 11.4662C151.038 11.4662 151.259 11.6889 151.259 11.9602L151.258 15.6867ZM149.332 16.1783H147.467C147.336 16.178 147.211 16.1262 147.119 16.0342C147.026 15.9421 146.974 15.8173 146.972 15.6867V11.9602C146.972 11.6889 147.195 11.4662 147.467 11.4662C147.739 11.4662 147.959 11.6889 147.959 11.9602V15.1951H149.332C149.462 15.1951 149.587 15.2469 149.68 15.3391C149.772 15.4313 149.824 15.5563 149.824 15.6867C149.824 15.8171 149.772 15.9421 149.68 16.0343C149.587 16.1265 149.462 16.1783 149.332 16.1783V16.1783ZM162.375 13.6811C162.375 9.48516 158.166 6.07031 153 6.07031C147.834 6.07031 143.625 9.48516 143.625 13.6811C143.625 17.441 146.961 20.5904 151.465 21.1887C151.77 21.2525 152.185 21.3902 152.292 21.6498C152.387 21.8842 152.353 22.2475 152.323 22.4953L152.194 23.2916C152.157 23.5266 152.005 24.2168 153.012 23.7955C154.022 23.3742 158.417 20.6098 160.385 18.3445C161.731 16.8709 162.375 15.3568 162.375 13.6811Z" fill="#474747"/>
</g>
<defs>
<clipPath id="clip0_632_170">
<rect width="18.75" height="18.75" fill="white" transform="translate(97.625 5.625)"/>
</clipPath>
<clipPath id="clip1_632_170">
<rect width="18.75" height="18.75" fill="white" transform="translate(143.625 5.625)"/>
</clipPath>
</defs>
</svg>
